<svg width="20" height="21" viewBox="0 0 20 21" fill="none" xmlns="http://www.w3.org/2000/svg">
<path d="M10 0.694336C4.48 0.694336 0 5.17434 0 10.6943C0 16.2143 4.48 20.6943 10 20.6943C15.52 20.6943 20 16.2143 20 10.6943C20 5.17434 15.52 0.694336 10 0.694336ZM5.07 16.9743C5.5 16.0743 8.12 15.1943 10 15.1943C11.88 15.1943 14.51 16.0743 14.93 16.9743C13.57 18.0543 11.86 18.6943 10 18.6943C8.14 18.6943 6.43 18.0543 5.07 16.9743ZM16.36 15.5243C14.93 13.7843 11.46 13.1943 10 13.1943C8.54 13.1943 5.07 13.7843 3.64 15.5243C2.62 14.1843 2 12.5143 2 10.6943C2 6.28434 5.59 2.69434 10 2.69434C14.41 2.69434 18 6.28434 18 10.6943C18 12.5143 17.38 14.1843 16.36 15.5243ZM10 4.69434C8.06 4.69434 6.5 6.25434 6.5 8.19434C6.5 10.1343 8.06 11.6943 10 11.6943C11.94 11.6943 13.5 10.1343 13.5 8.19434C13.5 6.25434 11.94 4.69434 10 4.69434ZM10 9.69434C9.17 9.69434 8.5 9.02434 8.5 8.19434C8.5 7.36434 9.17 6.69434 10 6.69434C10.83 6.69434 11.5 7.36434 11.5 8.19434C11.5 9.02434 10.83 9.69434 10 9.69434Z" fill="black" fill-opacity="0.87"/>
</svg>
